<svg width="73" height="74" viewBox="0 0 73 74" fill="none" xmlns="http://www.w3.org/2000/svg">
<path d="M32.2445 50.5514L53.6725 29.1234L49.4173 24.8682L32.2445 42.041L23.5822 33.3786L19.327 37.6338L32.2445 50.5514ZM36.4997 66.9643C32.2952 66.9643 28.3439 66.1664 24.646 64.5707C20.948 62.975 17.7313 60.8094 14.9958 58.0739C12.2603 55.3385 10.0947 52.1217 8.49902 48.4238C6.90332 44.7258 6.10547 40.7746 6.10547 36.57C6.10547 32.3655 6.90332 28.4142 8.49902 24.7163C10.0947 21.0183 12.2603 17.8016 14.9958 15.0661C17.7313 12.3306 20.948 10.165 24.646 8.56933C28.3439 6.97363 32.2952 6.17578 36.4997 6.17578C40.7042 6.17578 44.6555 6.97363 48.3535 8.56933C52.0514 10.165 55.2682 12.3306 58.0036 15.0661C60.7391 17.8016 62.9047 21.0183 64.5004 24.7163C66.0961 28.4142 66.894 32.3655 66.894 36.57C66.894 40.7746 66.0961 44.7258 64.5004 48.4238C62.9047 52.1217 60.7391 55.3385 58.0036 58.0739C55.2682 60.8094 52.0514 62.975 48.3535 64.5707C44.6555 66.1664 40.7042 66.9643 36.4997 66.9643ZM36.4997 60.8854C43.2878 60.8854 49.0373 58.5299 53.7484 53.8188C58.4595 49.1076 60.8151 43.3581 60.8151 36.57C60.8151 29.782 58.4595 24.0324 53.7484 19.3213C49.0373 14.6102 43.2878 12.2546 36.4997 12.2546C29.7117 12.2546 23.9621 14.6102 19.251 19.3213C14.5399 24.0324 12.1843 29.782 12.1843 36.57C12.1843 43.3581 14.5399 49.1076 19.251 53.8188C23.9621 58.5299 29.7117 60.8854 36.4997 60.8854Z" fill="black"/>
</svg>
