<svg width="73" height="74" viewBox="0 0 73 74" fill="none" xmlns="http://www.w3.org/2000/svg">
<path d="M36.4996 52.3119C37.3607 52.3119 38.0825 52.0206 38.665 51.4381C39.2475 50.8556 39.5388 50.1338 39.5388 49.2727C39.5388 48.4115 39.2475 47.6897 38.665 47.1072C38.0825 46.5247 37.3607 46.2334 36.4996 46.2334C35.6385 46.2334 34.9167 46.5247 34.3341 47.1072C33.7516 47.6897 33.4604 48.4115 33.4604 49.2727C33.4604 50.1338 33.7516 50.8556 34.3341 51.4381C34.9167 52.0206 35.6385 52.3119 36.4996 52.3119ZM33.4604 40.155H39.5388V21.9197H33.4604V40.155ZM36.4996 67.5079C32.2953 67.5079 28.3444 66.7102 24.6466 65.1146C20.9489 63.519 17.7324 61.3535 14.9971 58.6182C12.2618 55.8829 10.0964 52.6664 8.5008 48.9687C6.90522 45.271 6.10742 41.32 6.10742 37.1158C6.10742 32.9115 6.90522 28.9606 8.5008 25.2628C10.0964 21.5651 12.2618 18.3486 14.9971 15.6133C17.7324 12.878 20.9489 10.7126 24.6466 9.11702C28.3444 7.52143 32.2953 6.72363 36.4996 6.72363C40.7038 6.72363 44.6548 7.52143 48.3525 9.11702C52.0502 10.7126 55.2667 12.878 58.002 15.6133C60.7373 18.3486 62.9028 21.5651 64.4984 25.2628C66.0939 28.9606 66.8917 32.9115 66.8917 37.1158C66.8917 41.32 66.0939 45.271 64.4984 48.9687C62.9028 52.6664 60.7373 55.8829 58.002 58.6182C55.2667 61.3535 52.0502 63.519 48.3525 65.1146C44.6548 66.7102 40.7038 67.5079 36.4996 67.5079ZM36.4996 61.4295C43.2872 61.4295 49.0363 59.0741 53.7471 54.3633C58.4579 49.6526 60.8133 43.9034 60.8133 37.1158C60.8133 30.3282 58.4579 24.579 53.7471 19.8682C49.0363 15.1575 43.2872 12.8021 36.4996 12.8021C29.712 12.8021 23.9628 15.1575 19.252 19.8682C14.5412 24.579 12.1859 30.3282 12.1859 37.1158C12.1859 43.9034 14.5412 49.6526 19.252 54.3633C23.9628 59.0741 29.712 61.4295 36.4996 61.4295Z" fill="black"/>
</svg>
