<svg width="61" height="50" viewBox="0 0 61 50" fill="none" xmlns="http://www.w3.org/2000/svg">
<path d="M6.18822 49.3836C4.51654 49.3836 3.08548 48.7884 1.89504 47.5979C0.704596 46.4075 0.109375 44.9764 0.109375 43.3047V6.83166C0.109375 5.15997 0.704596 3.72891 1.89504 2.53847C3.08548 1.34803 4.51654 0.752808 6.18822 0.752808H54.819C56.4907 0.752808 57.9218 1.34803 59.1122 2.53847C60.3026 3.72891 60.8979 5.15997 60.8979 6.83166V43.3047C60.8979 44.9764 60.3026 46.4075 59.1122 47.5979C57.9218 48.7884 56.4907 49.3836 54.819 49.3836H6.18822ZM30.5036 28.1076L6.18822 12.9105V43.3047H54.819V12.9105L30.5036 28.1076ZM30.5036 22.0288L54.819 6.83166H6.18822L30.5036 22.0288ZM6.18822 12.9105V6.83166V43.3047V12.9105Z" fill="black"/>
</svg>
